<svg width="56" height="54" viewBox="0 0 56 54" fill="none" xmlns="http://www.w3.org/2000/svg">
<circle cx="24" cy="30" r="24" fill="#344966"/>
<path d="M11.0833 19.167H13.8123C14.7497 19.167 15.5614 19.8181 15.7647 20.7331L16.5 24.042M16.5 24.042L17.7709 31.032C18.2896 33.8849 20.7744 35.9587 23.6741 35.9587H27.419C30.2204 35.9587 32.6489 34.0201 33.2698 31.2884L34.5002 25.8744C34.7135 24.9358 34.0001 24.042 33.0375 24.042H16.5Z" stroke="#F0F4EF" stroke-width="2" stroke-linecap="round"/>
<ellipse cx="19.2083" cy="39.7503" rx="1.08333" ry="1.08333" stroke="#F0F4EF" stroke-width="2"/>
<ellipse cx="32.2083" cy="39.7503" rx="1.08333" ry="1.08333" stroke="#F0F4EF" stroke-width="2"/>
<circle cx="44.5" cy="11.5" r="11.5" fill="#BFCC94"/>
<path d="M42.324 9.148V7.24H45.648V16H43.512V9.148H42.324Z" fill="#344966"/>
</svg>
